<svg xmlns="http://www.w3.org/2000/svg" version="1.1" xmlns:xlink="http://www.w3.org/1999/xlink" xmlns:svgjs="http://svgjs.com/svgjs" width="1440" height="560" preserveAspectRatio="none" viewBox="0 0 1440 560"><g mask="url(&quot;#SvgjsMask1011&quot;)" fill="none"><rect width="1440" height="560" x="0" y="0" fill="rgba(13, 97, 235, 0.89)"></rect><path d="M921.860695406238-38.050160728750456L836.1949967567521-53.15533472189555 906.755521413093 47.61553792073558z" fill="rgba(8, 85, 209, 0.87)" class="triangle-float3"></path><path d="M652.399,597.972C691.033,598.666,733.014,593.013,753.844,560.469C775.983,525.88,770.798,480.96,749.933,445.588C729.419,410.811,692.773,388.019,652.399,388.493C612.795,388.958,578.262,413.365,558.755,447.835C539.555,481.762,536.442,523.86,557.072,556.937C576.694,588.397,615.327,597.306,652.399,597.972" fill="rgba(8, 85, 209, 0.87)" class="triangle-float2"></path><path d="M783.666,222.344C827.504,222.441,875.166,212.271,896.416,173.928C917.236,136.36,896.642,93.183,876.173,55.423C854.259,14.996,829.615,-32.28,783.666,-34.071C735.903,-35.933,700.45,5.617,677.764,47.689C656.419,87.275,648.461,134.973,671.779,173.43C694.398,210.734,740.04,222.247,783.666,222.344" fill="rgba(8, 85, 209, 0.87)" class="triangle-float2"></path><path d="M1319.6085427024125 23.530094827165343L1247.7070729568086 97.98624635483358 1395.342035121113 168.61037520940516z" fill="rgba(8, 85, 209, 0.87)" class="triangle-float1"></path><path d="M1484.405158059362 332.05678829840303L1436.472604534589 164.29285096169755 1328.6243591038499 272.1410963924368z" fill="rgba(8, 85, 209, 0.87)" class="triangle-float1"></path><path d="M324.495,107.054C344.66,107.957,363.29,96.396,373.544,79.01C383.968,61.335,384.662,39.64,374.901,21.59C364.636,2.608,346.06,-12.505,324.495,-11.695C303.94,-10.923,289.22,6.635,280.249,25.146C272.484,41.168,274.049,59.266,282.511,74.931C291.487,91.548,305.628,106.209,324.495,107.054" fill="rgba(8, 85, 209, 0.87)" class="triangle-float3"></path><path d="M187.96690730486506 156.86177909851878L268.84458422399314 100.23062004685579 143.45900718693463 7.229684193995155z" fill="rgba(8, 85, 209, 0.87)" class="triangle-float3"></path><path d="M292.0612880646996 523.0551118774637L201.93487739214834 429.72648155289886 198.7326577401348 613.181522550015z" fill="rgba(8, 85, 209, 0.87)" class="triangle-float3"></path><path d="M367.2612553067175 141.6932731945039L286.80385880473074 240.8565021355594 396.7359756614751 260.24050038379926z" fill="rgba(8, 85, 209, 0.87)" class="triangle-float1"></path><path d="M1431.232,655.081C1473.124,655.632,1503.879,618.331,1521.631,580.382C1536.702,548.165,1530.228,512.105,1512.549,481.242C1494.742,450.155,1467.031,423.965,1431.232,422.565C1393.178,421.077,1356.593,441.129,1338.1,474.421C1320.083,506.857,1327.86,545.076,1344.861,578.056C1363.806,614.805,1389.891,654.537,1431.232,655.081" fill="rgba(8, 85, 209, 0.87)" class="triangle-float1"></path><path d="M1202.736,335.714C1249.982,332.901,1285.115,295.695,1306.658,253.552C1326.094,215.53,1324.756,172.31,1305.834,134.029C1284.093,90.045,1251.747,45.586,1202.736,43.304C1150.857,40.888,1107.284,78.475,1081.548,123.585C1056.069,168.245,1049.41,222.705,1074.915,267.35C1100.604,312.316,1151.041,338.792,1202.736,335.714" fill="rgba(8, 85, 209, 0.87)" class="triangle-float3"></path></g><defs><mask id="SvgjsMask1011"><rect width="1440" height="560" fill="#ffffff"></rect></mask><style>
            @keyframes float1 {
                0%{transform: translate(0, 0)}
                50%{transform: translate(-10px, 0)}
                100%{transform: translate(0, 0)}
            }

            .triangle-float1 {
                animation: float1 5s infinite;
            }

            @keyframes float2 {
                0%{transform: translate(0, 0)}
                50%{transform: translate(-5px, -5px)}
                100%{transform: translate(0, 0)}
            }

            .triangle-float2 {
                animation: float2 4s infinite;
            }

            @keyframes float3 {
                0%{transform: translate(0, 0)}
                50%{transform: translate(0, -10px)}
                100%{transform: translate(0, 0)}
            }

            .triangle-float3 {
                animation: float3 6s infinite;
            }
        </style></defs></svg>