<svg xmlns="http://www.w3.org/2000/svg" version="1.1" xmlns:xlink="http://www.w3.org/1999/xlink" xmlns:svgjs="http://svgjs.com/svgjs" width="1440" height="450" preserveAspectRatio="none" viewBox="0 0 1440 450"><g mask="url(&quot;#SvgjsMask1018&quot;)" fill="none"><rect width="1440" height="450" x="0" y="0" fill="rgba(34, 84, 185, 1)"></rect><path d="M17 450L467 0L639.5 0L189.5 450z" fill="url(#SvgjsLinearGradient1019)"></path><path d="M365.8 450L815.8 0L1012.3 0L562.3 450z" fill="url(#SvgjsLinearGradient1019)"></path><path d="M641.6 450L1091.6 0L1325.6 0L875.6 450z" fill="url(#SvgjsLinearGradient1019)"></path><path d="M1382 450L932 0L534.5 0L984.5 450z" fill="url(#SvgjsLinearGradient1020)"></path><path d="M1077.2 450L627.2 0L181.70000000000005 0L631.7 450z" fill="url(#SvgjsLinearGradient1020)"></path><path d="M801.4 450L351.4 0L-89.60000000000002 0L360.4 450z" fill="url(#SvgjsLinearGradient1020)"></path><path d="M1132.3768405951607 450L1440 142.3768405951608L1440 450z" fill="url(#SvgjsLinearGradient1019)"></path><path d="M0 450L307.6231594048392 450L 0 142.3768405951608z" fill="url(#SvgjsLinearGradient1020)"></path></g><defs><mask id="SvgjsMask1018"><rect width="1440" height="450" fill="#ffffff"></rect></mask><linearGradient x1="0%" y1="100%" x2="100%" y2="0%" id="SvgjsLinearGradient1019"><stop stop-color="rgba(54, 172, 233, 0.53)" offset="0"></stop><stop stop-opacity="0" stop-color="rgba(54, 172, 233, 0.53)" offset="0.66"></stop></linearGradient><linearGradient x1="100%" y1="100%" x2="0%" y2="0%" id="SvgjsLinearGradient1020"><stop stop-color="rgba(54, 172, 233, 0.53)" offset="0"></stop><stop stop-opacity="0" stop-color="rgba(54, 172, 233, 0.53)" offset="0.66"></stop></linearGradient></defs></svg>